<svg width="162" height="66" viewBox="0 0 162 66" fill="none" xmlns="http://www.w3.org/2000/svg">
<g clip-path="url(#clip0_246_2500)">
<rect width="162" height="66" rx="10" fill="black"/>
<rect x="1" y="1" width="160" height="64" rx="10" fill="white"/>
<path d="M27 37.912C27 35.32 26.392 33.32 25.176 31.912C23.96 30.472 22.376 29.752 20.424 29.752C19.336 29.752 18.472 29.8 17.832 29.896C17.224 29.992 16.744 30.104 16.392 30.232V44.296C16.84 44.712 17.496 45.096 18.36 45.448C19.224 45.8 20.12 45.976 21.048 45.976C22.104 45.976 23 45.768 23.736 45.352C24.504 44.936 25.128 44.376 25.608 43.672C26.088 42.936 26.44 42.088 26.664 41.128C26.888 40.136 27 39.064 27 37.912ZM31.08 37.912C31.08 39.608 30.856 41.176 30.408 42.616C29.992 44.024 29.368 45.24 28.536 46.264C27.736 47.288 26.744 48.088 25.56 48.664C24.376 49.24 23.032 49.528 21.528 49.528C20.344 49.528 19.304 49.384 18.408 49.096C17.512 48.808 16.84 48.488 16.392 48.136V56.92H12.408V27.4C13.272 27.144 14.376 26.888 15.72 26.632C17.096 26.376 18.664 26.248 20.424 26.248C22.024 26.248 23.48 26.52 24.792 27.064C26.104 27.608 27.224 28.392 28.152 29.416C29.08 30.408 29.8 31.624 30.312 33.064C30.824 34.504 31.08 36.12 31.08 37.912ZM55.08 37.864C55.08 39.624 54.824 41.224 54.312 42.664C53.832 44.072 53.144 45.288 52.248 46.312C51.352 47.336 50.28 48.136 49.032 48.712C47.784 49.256 46.424 49.528 44.952 49.528C43.512 49.528 42.168 49.256 40.92 48.712C39.704 48.136 38.648 47.336 37.752 46.312C36.856 45.288 36.152 44.072 35.64 42.664C35.16 41.224 34.92 39.624 34.92 37.864C34.92 36.104 35.16 34.504 35.64 33.064C36.152 31.624 36.856 30.408 37.752 29.416C38.648 28.392 39.704 27.608 40.92 27.064C42.168 26.488 43.512 26.2 44.952 26.2C46.424 26.2 47.784 26.488 49.032 27.064C50.28 27.608 51.352 28.392 52.248 29.416C53.144 30.408 53.832 31.624 54.312 33.064C54.824 34.504 55.08 36.104 55.08 37.864ZM51 37.864C51 35.336 50.456 33.352 49.368 31.912C48.28 30.44 46.808 29.704 44.952 29.704C43.128 29.704 41.672 30.44 40.584 31.912C39.528 33.352 39 35.336 39 37.864C39 40.36 39.528 42.344 40.584 43.816C41.672 45.256 43.128 45.976 44.952 45.976C46.808 45.976 48.28 45.256 49.368 43.816C50.456 42.344 51 40.36 51 37.864ZM73.608 31.432C73.16 31.016 72.504 30.632 71.64 30.28C70.776 29.896 69.88 29.704 68.952 29.704C67.896 29.704 66.984 29.912 66.216 30.328C65.48 30.744 64.872 31.32 64.392 32.056C63.912 32.76 63.56 33.624 63.336 34.648C63.112 35.64 63 36.712 63 37.864C63 40.456 63.608 42.456 64.824 43.864C66.04 45.272 67.624 45.976 69.576 45.976C70.568 45.976 71.4 45.928 72.072 45.832C72.776 45.736 73.288 45.64 73.608 45.544V31.432ZM73.608 16.408L77.592 15.736V48.376C76.728 48.632 75.624 48.888 74.28 49.144C72.936 49.4 71.368 49.528 69.576 49.528C67.976 49.528 66.52 49.256 65.208 48.712C63.896 48.168 62.776 47.4 61.848 46.408C60.92 45.384 60.2 44.152 59.688 42.712C59.176 41.272 58.92 39.656 58.92 37.864C58.92 36.136 59.128 34.568 59.544 33.16C59.992 31.72 60.632 30.488 61.464 29.464C62.296 28.44 63.288 27.64 64.44 27.064C65.624 26.488 66.968 26.2 68.472 26.2C69.656 26.2 70.696 26.344 71.592 26.632C72.488 26.92 73.16 27.224 73.608 27.544V16.408ZM91.032 23.272C90.2 23.272 89.48 22.984 88.872 22.408C88.264 21.832 87.96 21.048 87.96 20.056C87.96 19.064 88.264 18.28 88.872 17.704C89.48 17.128 90.2 16.84 91.032 16.84C91.896 16.84 92.616 17.128 93.192 17.704C93.8 18.28 94.104 19.064 94.104 20.056C94.104 21.048 93.8 21.832 93.192 22.408C92.616 22.984 91.896 23.272 91.032 23.272ZM90.024 30.04H83.592V26.728H93.96V40.408C93.96 42.616 94.264 44.104 94.872 44.872C95.48 45.608 96.392 45.976 97.608 45.976C98.536 45.976 99.384 45.864 100.152 45.64C100.952 45.416 101.576 45.176 102.024 44.92L102.6 48.28C102.408 48.376 102.136 48.504 101.784 48.664C101.432 48.792 101.016 48.92 100.536 49.048C100.088 49.176 99.576 49.288 99 49.384C98.456 49.48 97.88 49.528 97.272 49.528C95.864 49.528 94.696 49.336 93.768 48.952C92.84 48.568 92.088 47.992 91.512 47.224C90.968 46.456 90.584 45.512 90.36 44.392C90.136 43.24 90.024 41.912 90.024 40.408V30.04ZM107.448 53.176C107.736 53.336 108.136 53.464 108.648 53.56C109.192 53.656 109.688 53.704 110.136 53.704C111.704 53.704 112.92 53.352 113.784 52.648C114.68 51.976 115.496 50.856 116.232 49.288C114.44 45.896 112.76 42.264 111.192 38.392C109.624 34.488 108.328 30.6 107.304 26.728H111.624C111.944 28.008 112.312 29.4 112.728 30.904C113.176 32.376 113.672 33.896 114.216 35.464C114.76 37.032 115.336 38.616 115.944 40.216C116.584 41.784 117.256 43.288 117.96 44.728C118.472 43.256 118.952 41.8 119.4 40.36C119.848 38.92 120.264 37.48 120.648 36.04C121.032 34.568 121.416 33.08 121.8 31.576C122.184 30.04 122.584 28.424 123 26.728H127.128C126.104 30.888 124.952 34.92 123.672 38.824C122.424 42.728 121.08 46.344 119.64 49.672C119.096 50.952 118.504 52.056 117.864 52.984C117.256 53.912 116.584 54.68 115.848 55.288C115.112 55.896 114.28 56.344 113.352 56.632C112.424 56.92 111.368 57.064 110.184 57.064C109.576 57.064 108.904 56.984 108.168 56.824C107.464 56.664 106.984 56.52 106.728 56.392L107.448 53.176ZM141.24 46.168C142.232 46.168 143.112 46.136 143.88 46.072C144.68 46.008 145.336 45.928 145.848 45.832V39.208C145.336 39.048 144.712 38.92 143.976 38.824C143.272 38.728 142.52 38.68 141.72 38.68C140.984 38.68 140.264 38.744 139.56 38.872C138.856 38.968 138.232 39.16 137.688 39.448C137.144 39.736 136.696 40.12 136.344 40.6C135.992 41.048 135.816 41.624 135.816 42.328C135.816 43.768 136.296 44.776 137.256 45.352C138.248 45.896 139.576 46.168 141.24 46.168ZM140.856 26.2C142.52 26.2 143.912 26.408 145.032 26.824C146.184 27.24 147.112 27.816 147.816 28.552C148.52 29.288 149.016 30.184 149.304 31.24C149.592 32.296 149.736 33.448 149.736 34.696V48.616C148.808 48.776 147.576 48.968 146.04 49.192C144.536 49.416 142.984 49.528 141.384 49.528C140.168 49.528 138.984 49.416 137.832 49.192C136.68 49 135.656 48.648 134.76 48.136C133.864 47.592 133.144 46.856 132.6 45.928C132.056 45 131.784 43.816 131.784 42.376C131.784 41.096 132.056 40.024 132.6 39.16C133.176 38.264 133.896 37.544 134.76 37C135.656 36.456 136.664 36.072 137.784 35.848C138.936 35.592 140.088 35.464 141.24 35.464C142.808 35.464 144.344 35.64 145.848 35.992V34.888C145.848 34.216 145.768 33.576 145.608 32.968C145.48 32.328 145.208 31.752 144.792 31.24C144.408 30.728 143.864 30.328 143.16 30.04C142.488 29.72 141.608 29.56 140.52 29.56C139.144 29.56 137.944 29.656 136.92 29.848C135.896 30.04 135.112 30.232 134.568 30.424L134.088 27.16C134.632 26.904 135.528 26.68 136.776 26.488C138.056 26.296 139.416 26.2 140.856 26.2Z" fill="#C6AED9"/>
</g>
<defs>
<clipPath id="clip0_246_2500">
<rect width="162" height="66" fill="white"/>
</clipPath>
</defs>
</svg>
